<mxfile host="app.diagrams.net" agent="Mozilla/5.0 (Windows NT 10.0; Win64; x64; rv:133.0) Gecko/20100101 Firefox/133.0" version="25.0.3">
  <diagram name="Страница — 1" id="JHRD_4L-2WpcEshYOIYb">
    <mxGraphModel dx="3790" dy="1106" grid="1" gridSize="10" guides="1" tooltips="1" connect="1" arrows="1" fold="1" page="1" pageScale="1" pageWidth="827" pageHeight="1169" math="0" shadow="0">
      <root>
        <mxCell id="0" />
        <mxCell id="1" parent="0" />
        <mxCell id="avBIJHnpUzUA5rvyYwg7-1" style="edgeStyle=orthogonalEdgeStyle;rounded=0;orthogonalLoop=1;jettySize=auto;html=1;exitX=0.5;exitY=1;exitDx=0;exitDy=0;entryX=0.5;entryY=0;entryDx=0;entryDy=0;" parent="1" source="avBIJHnpUzUA5rvyYwg7-2" target="avBIJHnpUzUA5rvyYwg7-35" edge="1">
          <mxGeometry relative="1" as="geometry">
            <mxPoint x="-20" y="300" as="targetPoint" />
          </mxGeometry>
        </mxCell>
        <mxCell id="avBIJHnpUzUA5rvyYwg7-2" value="Начало" style="rounded=1;whiteSpace=wrap;html=1;" parent="1" vertex="1">
          <mxGeometry x="-75" y="230" width="120" height="40" as="geometry" />
        </mxCell>
        <mxCell id="avBIJHnpUzUA5rvyYwg7-86" style="edgeStyle=orthogonalEdgeStyle;rounded=0;orthogonalLoop=1;jettySize=auto;html=1;exitX=0.5;exitY=1;exitDx=0;exitDy=0;" parent="1" source="avBIJHnpUzUA5rvyYwg7-35" target="avBIJHnpUzUA5rvyYwg7-85" edge="1">
          <mxGeometry relative="1" as="geometry" />
        </mxCell>
        <mxCell id="avBIJHnpUzUA5rvyYwg7-35" value="Ввод str,sub" style="shape=parallelogram;perimeter=parallelogramPerimeter;whiteSpace=wrap;html=1;fixedSize=1;" parent="1" vertex="1">
          <mxGeometry x="-75" y="310" width="120" height="60" as="geometry" />
        </mxCell>
        <mxCell id="avBIJHnpUzUA5rvyYwg7-89" style="edgeStyle=orthogonalEdgeStyle;rounded=0;orthogonalLoop=1;jettySize=auto;html=1;exitX=1;exitY=0.5;exitDx=0;exitDy=0;entryX=0.5;entryY=0;entryDx=0;entryDy=0;" parent="1" source="avBIJHnpUzUA5rvyYwg7-36" target="avBIJHnpUzUA5rvyYwg7-94" edge="1">
          <mxGeometry relative="1" as="geometry">
            <mxPoint x="80" y="560.2857142857143" as="targetPoint" />
          </mxGeometry>
        </mxCell>
        <mxCell id="avBIJHnpUzUA5rvyYwg7-90" style="edgeStyle=orthogonalEdgeStyle;rounded=0;orthogonalLoop=1;jettySize=auto;html=1;exitX=0.5;exitY=1;exitDx=0;exitDy=0;entryX=0.543;entryY=0;entryDx=0;entryDy=0;entryPerimeter=0;" parent="1" source="avBIJHnpUzUA5rvyYwg7-36" target="avBIJHnpUzUA5rvyYwg7-93" edge="1">
          <mxGeometry relative="1" as="geometry">
            <mxPoint x="-14.85714285714289" y="630" as="targetPoint" />
          </mxGeometry>
        </mxCell>
        <mxCell id="avBIJHnpUzUA5rvyYwg7-36" value="&lt;font style=&quot;font-size: 9px;&quot;&gt;i &amp;lt;= len(str) - len(sub)&lt;/font&gt;" style="rhombus;whiteSpace=wrap;html=1;" parent="1" vertex="1">
          <mxGeometry x="-72.5" y="530" width="115" height="60" as="geometry" />
        </mxCell>
        <mxCell id="avBIJHnpUzUA5rvyYwg7-88" style="edgeStyle=orthogonalEdgeStyle;rounded=0;orthogonalLoop=1;jettySize=auto;html=1;exitX=0.5;exitY=1;exitDx=0;exitDy=0;entryX=0.5;entryY=0;entryDx=0;entryDy=0;" parent="1" source="avBIJHnpUzUA5rvyYwg7-85" target="avBIJHnpUzUA5rvyYwg7-36" edge="1">
          <mxGeometry relative="1" as="geometry" />
        </mxCell>
        <mxCell id="avBIJHnpUzUA5rvyYwg7-85" value="&lt;div&gt;count = 0&lt;/div&gt;&lt;div&gt;i = 0&lt;/div&gt;" style="rounded=0;whiteSpace=wrap;html=1;" parent="1" vertex="1">
          <mxGeometry x="-75" y="420" width="120" height="60" as="geometry" />
        </mxCell>
        <mxCell id="avBIJHnpUzUA5rvyYwg7-91" value="Нет" style="text;html=1;align=center;verticalAlign=middle;resizable=0;points=[];autosize=1;strokeColor=none;fillColor=none;" parent="1" vertex="1">
          <mxGeometry x="-20" y="590" width="40" height="30" as="geometry" />
        </mxCell>
        <mxCell id="avBIJHnpUzUA5rvyYwg7-92" value="Да" style="text;html=1;align=center;verticalAlign=middle;resizable=0;points=[];autosize=1;strokeColor=none;fillColor=none;" parent="1" vertex="1">
          <mxGeometry x="30" y="530" width="40" height="30" as="geometry" />
        </mxCell>
        <mxCell id="avBIJHnpUzUA5rvyYwg7-109" style="edgeStyle=orthogonalEdgeStyle;rounded=0;orthogonalLoop=1;jettySize=auto;html=1;exitX=0.546;exitY=0.969;exitDx=0;exitDy=0;entryX=0.5;entryY=0;entryDx=0;entryDy=0;exitPerimeter=0;" parent="1" source="avBIJHnpUzUA5rvyYwg7-93" target="avBIJHnpUzUA5rvyYwg7-108" edge="1">
          <mxGeometry relative="1" as="geometry" />
        </mxCell>
        <mxCell id="avBIJHnpUzUA5rvyYwg7-93" value="&lt;font style=&quot;font-size: 11px;&quot;&gt;&lt;font&gt;Вывод &lt;/font&gt;&lt;/font&gt;count" style="shape=parallelogram;perimeter=parallelogramPerimeter;whiteSpace=wrap;html=1;fixedSize=1;" parent="1" vertex="1">
          <mxGeometry x="-80" y="980" width="120" height="60" as="geometry" />
        </mxCell>
        <mxCell id="avBIJHnpUzUA5rvyYwg7-96" style="edgeStyle=orthogonalEdgeStyle;rounded=0;orthogonalLoop=1;jettySize=auto;html=1;exitX=0.5;exitY=1;exitDx=0;exitDy=0;entryX=0.5;entryY=0;entryDx=0;entryDy=0;" parent="1" source="avBIJHnpUzUA5rvyYwg7-94" target="avBIJHnpUzUA5rvyYwg7-95" edge="1">
          <mxGeometry relative="1" as="geometry" />
        </mxCell>
        <mxCell id="avBIJHnpUzUA5rvyYwg7-94" value="&lt;font style=&quot;font-size: 11px;&quot;&gt;&lt;span class=&quot;base&quot;&gt;&lt;span class=&quot;mord mathnormal&quot;&gt;main&lt;/span&gt;&lt;span class=&quot;mord mathnormal&quot;&gt;St&lt;/span&gt;&lt;span class=&quot;mord mathnormal&quot;&gt;r&lt;/span&gt;&lt;span class=&quot;mopen&quot;&gt;[&lt;/span&gt;&lt;span class=&quot;mord mathnormal&quot;&gt;i&lt;/span&gt;&lt;span class=&quot;mspace&quot;&gt;&lt;/span&gt;&lt;span class=&quot;mbin&quot;&gt;+&lt;/span&gt;&lt;span class=&quot;mspace&quot;&gt;&lt;/span&gt;&lt;/span&gt;&lt;span class=&quot;base&quot;&gt;&lt;span class=&quot;strut&quot;&gt;&lt;/span&gt;&lt;span class=&quot;mord mathnormal&quot;&gt;j&lt;/span&gt;&lt;span class=&quot;mclose&quot;&gt;]&lt;/span&gt;&lt;span class=&quot;mspace&quot;&gt;&lt;/span&gt;&lt;span class=&quot;mrel&quot;&gt;=&lt;/span&gt;&lt;span class=&quot;mspace&quot;&gt;&lt;/span&gt;&lt;/span&gt;&lt;span class=&quot;base&quot;&gt;&lt;span class=&quot;strut&quot;&gt;&lt;/span&gt;&lt;span class=&quot;mord mathnormal&quot;&gt;s&lt;/span&gt;&lt;span class=&quot;mord mathnormal&quot;&gt;u&lt;/span&gt;&lt;span class=&quot;mord mathnormal&quot;&gt;b&lt;/span&gt;&lt;span class=&quot;mord mathnormal&quot;&gt;St&lt;/span&gt;&lt;span class=&quot;mord mathnormal&quot;&gt;r&lt;/span&gt;&lt;span class=&quot;mopen&quot;&gt;[&lt;/span&gt;&lt;span class=&quot;mord mathnormal&quot;&gt;j&lt;/span&gt;&lt;span class=&quot;mclose&quot;&gt;]&lt;/span&gt;&lt;/span&gt;&lt;/font&gt;" style="rounded=0;whiteSpace=wrap;html=1;" parent="1" vertex="1">
          <mxGeometry x="62" y="590" width="120" height="60" as="geometry" />
        </mxCell>
        <mxCell id="avBIJHnpUzUA5rvyYwg7-97" style="edgeStyle=orthogonalEdgeStyle;rounded=0;orthogonalLoop=1;jettySize=auto;html=1;exitX=1;exitY=0.5;exitDx=0;exitDy=0;entryX=0.5;entryY=0;entryDx=0;entryDy=0;" parent="1" source="avBIJHnpUzUA5rvyYwg7-95" target="avBIJHnpUzUA5rvyYwg7-101" edge="1">
          <mxGeometry relative="1" as="geometry">
            <mxPoint x="222" y="720.2857142857142" as="targetPoint" />
          </mxGeometry>
        </mxCell>
        <mxCell id="avBIJHnpUzUA5rvyYwg7-98" style="edgeStyle=orthogonalEdgeStyle;rounded=0;orthogonalLoop=1;jettySize=auto;html=1;exitX=0.5;exitY=1;exitDx=0;exitDy=0;" parent="1" source="avBIJHnpUzUA5rvyYwg7-95" edge="1">
          <mxGeometry relative="1" as="geometry">
            <mxPoint x="122" y="800" as="targetPoint" />
          </mxGeometry>
        </mxCell>
        <mxCell id="avBIJHnpUzUA5rvyYwg7-95" value="&lt;font style=&quot;font-size: 11px;&quot;&gt;subStr=mainStr&lt;/font&gt;" style="rhombus;whiteSpace=wrap;html=1;" parent="1" vertex="1">
          <mxGeometry x="64.5" y="690" width="115" height="60" as="geometry" />
        </mxCell>
        <mxCell id="avBIJHnpUzUA5rvyYwg7-99" value="Нет" style="text;html=1;align=center;verticalAlign=middle;resizable=0;points=[];autosize=1;strokeColor=none;fillColor=none;" parent="1" vertex="1">
          <mxGeometry x="122" y="750" width="40" height="30" as="geometry" />
        </mxCell>
        <mxCell id="avBIJHnpUzUA5rvyYwg7-100" value="Да" style="text;html=1;align=center;verticalAlign=middle;resizable=0;points=[];autosize=1;strokeColor=none;fillColor=none;" parent="1" vertex="1">
          <mxGeometry x="172" y="690" width="40" height="30" as="geometry" />
        </mxCell>
        <mxCell id="avBIJHnpUzUA5rvyYwg7-105" style="edgeStyle=orthogonalEdgeStyle;rounded=0;orthogonalLoop=1;jettySize=auto;html=1;exitX=0.5;exitY=1;exitDx=0;exitDy=0;entryX=0.5;entryY=0;entryDx=0;entryDy=0;" parent="1" source="avBIJHnpUzUA5rvyYwg7-101" target="avBIJHnpUzUA5rvyYwg7-104" edge="1">
          <mxGeometry relative="1" as="geometry" />
        </mxCell>
        <mxCell id="avBIJHnpUzUA5rvyYwg7-101" value="&lt;div&gt;count +1&lt;/div&gt;&lt;div&gt;i+1&lt;br&gt;&lt;/div&gt;" style="rounded=0;whiteSpace=wrap;html=1;" parent="1" vertex="1">
          <mxGeometry x="222" y="740" width="120" height="60" as="geometry" />
        </mxCell>
        <mxCell id="avBIJHnpUzUA5rvyYwg7-102" value="i+1" style="rounded=0;whiteSpace=wrap;html=1;" parent="1" vertex="1">
          <mxGeometry x="64.5" y="800" width="120" height="60" as="geometry" />
        </mxCell>
        <mxCell id="avBIJHnpUzUA5rvyYwg7-104" value="&lt;code&gt;mainStr&lt;/code&gt;=&lt;code&gt;subStr&lt;/code&gt;" style="rounded=0;whiteSpace=wrap;html=1;" parent="1" vertex="1">
          <mxGeometry x="222" y="840" width="120" height="60" as="geometry" />
        </mxCell>
        <mxCell id="avBIJHnpUzUA5rvyYwg7-107" style="edgeStyle=orthogonalEdgeStyle;rounded=0;orthogonalLoop=1;jettySize=auto;html=1;exitX=0.5;exitY=1;exitDx=0;exitDy=0;entryX=0.549;entryY=-0.014;entryDx=0;entryDy=0;entryPerimeter=0;" parent="1" source="avBIJHnpUzUA5rvyYwg7-104" target="avBIJHnpUzUA5rvyYwg7-93" edge="1">
          <mxGeometry relative="1" as="geometry" />
        </mxCell>
        <mxCell id="avBIJHnpUzUA5rvyYwg7-108" value="Конец" style="rounded=1;whiteSpace=wrap;html=1;" parent="1" vertex="1">
          <mxGeometry x="-75" y="1090" width="120" height="40" as="geometry" />
        </mxCell>
        <mxCell id="avBIJHnpUzUA5rvyYwg7-112" style="edgeStyle=orthogonalEdgeStyle;rounded=0;orthogonalLoop=1;jettySize=auto;html=1;exitX=0.5;exitY=1;exitDx=0;exitDy=0;entryX=0.5;entryY=0;entryDx=0;entryDy=0;" parent="1" source="avBIJHnpUzUA5rvyYwg7-102" target="avBIJHnpUzUA5rvyYwg7-95" edge="1">
          <mxGeometry relative="1" as="geometry">
            <mxPoint x="122" y="690" as="targetPoint" />
            <mxPoint x="127" y="861" as="sourcePoint" />
            <Array as="points">
              <mxPoint x="125" y="870" />
              <mxPoint x="124" y="870" />
              <mxPoint x="124" y="900" />
              <mxPoint x="45" y="900" />
              <mxPoint x="45" y="680" />
              <mxPoint x="122" y="680" />
            </Array>
          </mxGeometry>
        </mxCell>
        <mxCell id="avBIJHnpUzUA5rvyYwg7-140" style="edgeStyle=orthogonalEdgeStyle;rounded=0;orthogonalLoop=1;jettySize=auto;html=1;exitX=0.5;exitY=1;exitDx=0;exitDy=0;entryX=0.5;entryY=0;entryDx=0;entryDy=0;" parent="1" source="avBIJHnpUzUA5rvyYwg7-141" target="avBIJHnpUzUA5rvyYwg7-143" edge="1">
          <mxGeometry relative="1" as="geometry">
            <mxPoint x="-660" y="360" as="targetPoint" />
          </mxGeometry>
        </mxCell>
        <mxCell id="avBIJHnpUzUA5rvyYwg7-141" value="Начало" style="rounded=1;whiteSpace=wrap;html=1;" parent="1" vertex="1">
          <mxGeometry x="-715" y="290" width="120" height="40" as="geometry" />
        </mxCell>
        <mxCell id="avBIJHnpUzUA5rvyYwg7-142" style="edgeStyle=orthogonalEdgeStyle;rounded=0;orthogonalLoop=1;jettySize=auto;html=1;exitX=0.5;exitY=1;exitDx=0;exitDy=0;entryX=0.5;entryY=0;entryDx=0;entryDy=0;" parent="1" source="avBIJHnpUzUA5rvyYwg7-143" target="avBIJHnpUzUA5rvyYwg7-146" edge="1">
          <mxGeometry relative="1" as="geometry" />
        </mxCell>
        <mxCell id="avBIJHnpUzUA5rvyYwg7-143" value="Ввод N,K" style="shape=parallelogram;perimeter=parallelogramPerimeter;whiteSpace=wrap;html=1;fixedSize=1;" parent="1" vertex="1">
          <mxGeometry x="-715" y="370" width="120" height="60" as="geometry" />
        </mxCell>
        <mxCell id="avBIJHnpUzUA5rvyYwg7-144" style="edgeStyle=orthogonalEdgeStyle;rounded=0;orthogonalLoop=1;jettySize=auto;html=1;exitX=0.5;exitY=1;exitDx=0;exitDy=0;" parent="1" source="avBIJHnpUzUA5rvyYwg7-146" edge="1">
          <mxGeometry relative="1" as="geometry">
            <mxPoint x="-655" y="570" as="targetPoint" />
          </mxGeometry>
        </mxCell>
        <mxCell id="avBIJHnpUzUA5rvyYwg7-145" style="edgeStyle=orthogonalEdgeStyle;rounded=0;orthogonalLoop=1;jettySize=auto;html=1;exitX=1;exitY=0.5;exitDx=0;exitDy=0;" parent="1" source="avBIJHnpUzUA5rvyYwg7-146" edge="1">
          <mxGeometry relative="1" as="geometry">
            <mxPoint x="-660" y="930" as="targetPoint" />
            <Array as="points">
              <mxPoint x="-230" y="510" />
              <mxPoint x="-230" y="930" />
            </Array>
          </mxGeometry>
        </mxCell>
        <mxCell id="avBIJHnpUzUA5rvyYwg7-146" value="i &amp;lt; n" style="rhombus;whiteSpace=wrap;html=1;" parent="1" vertex="1">
          <mxGeometry x="-712.5" y="480" width="115" height="60" as="geometry" />
        </mxCell>
        <mxCell id="avBIJHnpUzUA5rvyYwg7-147" value="&lt;div&gt;Нет&lt;br&gt;&lt;/div&gt;" style="text;html=1;align=center;verticalAlign=middle;resizable=0;points=[];autosize=1;strokeColor=none;fillColor=none;" parent="1" vertex="1">
          <mxGeometry x="-600" y="480" width="40" height="30" as="geometry" />
        </mxCell>
        <mxCell id="avBIJHnpUzUA5rvyYwg7-148" value="Да" style="text;html=1;align=center;verticalAlign=middle;resizable=0;points=[];autosize=1;strokeColor=none;fillColor=none;" parent="1" vertex="1">
          <mxGeometry x="-650" y="530" width="40" height="30" as="geometry" />
        </mxCell>
        <mxCell id="avBIJHnpUzUA5rvyYwg7-149" value="j &amp;lt; n и j ≠ i" style="rhombus;whiteSpace=wrap;html=1;" parent="1" vertex="1">
          <mxGeometry x="-712.5" y="570" width="115" height="60" as="geometry" />
        </mxCell>
        <mxCell id="avBIJHnpUzUA5rvyYwg7-150" value="&lt;span class=&quot;base&quot;&gt;&lt;span class=&quot;mord mathnormal&quot;&gt;a&lt;/span&gt;&lt;span class=&quot;mord mathnormal&quot;&gt;rr&lt;/span&gt;&lt;span class=&quot;mopen&quot;&gt;[&lt;/span&gt;&lt;span class=&quot;mord mathnormal&quot;&gt;i&lt;/span&gt;&lt;span class=&quot;mclose&quot;&gt;]&lt;/span&gt;&lt;span class=&quot;mspace&quot;&gt;&lt;/span&gt;&lt;span class=&quot;mbin&quot;&gt;−&lt;/span&gt;&lt;span class=&quot;mspace&quot;&gt;&lt;/span&gt;&lt;/span&gt;&lt;span class=&quot;base&quot;&gt;&lt;span class=&quot;strut&quot;&gt;&lt;/span&gt;&lt;span class=&quot;mord mathnormal&quot;&gt;a&lt;/span&gt;&lt;span class=&quot;mord mathnormal&quot;&gt;rr&lt;/span&gt;&lt;span class=&quot;mopen&quot;&gt;[&lt;/span&gt;&lt;span class=&quot;mord mathnormal&quot;&gt;j&lt;/span&gt;&lt;span class=&quot;mclose&quot;&gt;]&lt;/span&gt;&lt;span class=&quot;mord&quot;&gt;∣&lt;/span&gt;&lt;span class=&quot;mspace&quot;&gt;&lt;/span&gt;&lt;span class=&quot;mrel&quot;&gt;=&lt;/span&gt;&lt;span class=&quot;mspace&quot;&gt;&lt;/span&gt;&lt;/span&gt;&lt;span class=&quot;base&quot;&gt;&lt;span class=&quot;strut&quot;&gt;&lt;/span&gt;&lt;span class=&quot;mord mathnormal&quot;&gt;k&lt;/span&gt;&lt;/span&gt;" style="rhombus;whiteSpace=wrap;html=1;" parent="1" vertex="1">
          <mxGeometry x="-565" y="620" width="115" height="60" as="geometry" />
        </mxCell>
        <mxCell id="avBIJHnpUzUA5rvyYwg7-151" style="edgeStyle=orthogonalEdgeStyle;rounded=0;orthogonalLoop=1;jettySize=auto;html=1;exitX=1;exitY=0.5;exitDx=0;exitDy=0;entryX=0.5;entryY=0;entryDx=0;entryDy=0;" parent="1" target="avBIJHnpUzUA5rvyYwg7-150" edge="1">
          <mxGeometry relative="1" as="geometry">
            <mxPoint x="-560" y="599.8599999999999" as="targetPoint" />
            <mxPoint x="-597" y="599.8599999999999" as="sourcePoint" />
          </mxGeometry>
        </mxCell>
        <mxCell id="avBIJHnpUzUA5rvyYwg7-152" value="&lt;div&gt;Нет&lt;br&gt;&lt;/div&gt;" style="text;html=1;align=center;verticalAlign=middle;resizable=0;points=[];autosize=1;strokeColor=none;fillColor=none;" parent="1" vertex="1">
          <mxGeometry x="-650" y="620" width="40" height="30" as="geometry" />
        </mxCell>
        <mxCell id="avBIJHnpUzUA5rvyYwg7-153" value="Да" style="text;html=1;align=center;verticalAlign=middle;resizable=0;points=[];autosize=1;strokeColor=none;fillColor=none;" parent="1" vertex="1">
          <mxGeometry x="-610" y="570" width="40" height="30" as="geometry" />
        </mxCell>
        <mxCell id="avBIJHnpUzUA5rvyYwg7-156" value="Конец" style="rounded=1;whiteSpace=wrap;html=1;" parent="1" vertex="1">
          <mxGeometry x="-720" y="990" width="120" height="40" as="geometry" />
        </mxCell>
        <mxCell id="avBIJHnpUzUA5rvyYwg7-157" style="edgeStyle=orthogonalEdgeStyle;rounded=0;orthogonalLoop=1;jettySize=auto;html=1;exitX=0;exitY=0.5;exitDx=0;exitDy=0;" parent="1" source="avBIJHnpUzUA5rvyYwg7-158" edge="1">
          <mxGeometry relative="1" as="geometry">
            <mxPoint x="-650" y="560" as="targetPoint" />
            <Array as="points">
              <mxPoint x="-740" y="690" />
              <mxPoint x="-740" y="560" />
            </Array>
          </mxGeometry>
        </mxCell>
        <mxCell id="avBIJHnpUzUA5rvyYwg7-158" value="увеличиваем &lt;span class=&quot;katex&quot;&gt;&lt;span class=&quot;katex-mathml&quot;&gt;&lt;math xmlns=&quot;http://www.w3.org/1998/Math/MathML&quot;&gt;&lt;mrow&gt;&lt;mi&gt;&lt;/mi&gt;&lt;/mrow&gt;&lt;/math&gt;&lt;/span&gt;&lt;span aria-hidden=&quot;true&quot; class=&quot;katex-html&quot;&gt;&lt;span class=&quot;base&quot;&gt;&lt;span class=&quot;strut&quot;&gt;&lt;/span&gt;&lt;span class=&quot;mord mathnormal&quot;&gt;i&lt;/span&gt;&lt;/span&gt;&lt;/span&gt;&lt;/span&gt;" style="rounded=0;whiteSpace=wrap;html=1;" parent="1" vertex="1">
          <mxGeometry x="-720" y="660" width="120" height="60" as="geometry" />
        </mxCell>
        <mxCell id="avBIJHnpUzUA5rvyYwg7-159" style="edgeStyle=orthogonalEdgeStyle;rounded=0;orthogonalLoop=1;jettySize=auto;html=1;exitX=1;exitY=0.5;exitDx=0;exitDy=0;entryX=0.552;entryY=-0.05;entryDx=0;entryDy=0;entryPerimeter=0;" parent="1" source="avBIJHnpUzUA5rvyYwg7-150" target="avBIJHnpUzUA5rvyYwg7-169" edge="1">
          <mxGeometry relative="1" as="geometry">
            <mxPoint x="-660" y="790" as="targetPoint" />
            <mxPoint x="-445" y="599.72" as="sourcePoint" />
            <Array as="points">
              <mxPoint x="-360" y="650" />
              <mxPoint x="-360" y="790" />
              <mxPoint x="-664" y="790" />
            </Array>
          </mxGeometry>
        </mxCell>
        <mxCell id="avBIJHnpUzUA5rvyYwg7-160" value="Да" style="text;html=1;align=center;verticalAlign=middle;resizable=0;points=[];autosize=1;strokeColor=none;fillColor=none;" parent="1" vertex="1">
          <mxGeometry x="-450" y="620" width="40" height="30" as="geometry" />
        </mxCell>
        <mxCell id="avBIJHnpUzUA5rvyYwg7-161" value="&lt;div&gt;Нет&lt;br&gt;&lt;/div&gt;" style="text;html=1;align=center;verticalAlign=middle;resizable=0;points=[];autosize=1;strokeColor=none;fillColor=none;" parent="1" vertex="1">
          <mxGeometry x="-500" y="675" width="40" height="30" as="geometry" />
        </mxCell>
        <mxCell id="avBIJHnpUzUA5rvyYwg7-162" value="увеличиваем &lt;span class=&quot;katex&quot;&gt;&lt;span class=&quot;katex-mathml&quot;&gt;&lt;math xmlns=&quot;http://www.w3.org/1998/Math/MathML&quot;&gt;&lt;mrow&gt;&lt;mi&gt;&lt;/mi&gt;&lt;/mrow&gt;&lt;/math&gt;&lt;/span&gt;&lt;span aria-hidden=&quot;true&quot; class=&quot;katex-html&quot;&gt;&lt;span class=&quot;base&quot;&gt;&lt;span class=&quot;mord mathnormal&quot;&gt;j&lt;/span&gt;&lt;/span&gt;&lt;/span&gt;&lt;/span&gt;" style="rounded=0;whiteSpace=wrap;html=1;" parent="1" vertex="1">
          <mxGeometry x="-567.5" y="705" width="120" height="60" as="geometry" />
        </mxCell>
        <mxCell id="avBIJHnpUzUA5rvyYwg7-163" style="edgeStyle=orthogonalEdgeStyle;rounded=0;orthogonalLoop=1;jettySize=auto;html=1;exitX=0.5;exitY=1;exitDx=0;exitDy=0;" parent="1" source="avBIJHnpUzUA5rvyYwg7-162" edge="1">
          <mxGeometry relative="1" as="geometry">
            <Array as="points">
              <mxPoint x="-508" y="780" />
              <mxPoint x="-581" y="780" />
            </Array>
            <mxPoint x="-507" y="610" as="targetPoint" />
          </mxGeometry>
        </mxCell>
        <mxCell id="avBIJHnpUzUA5rvyYwg7-165" value="" style="endArrow=classic;html=1;rounded=0;entryX=0.54;entryY=-0.032;entryDx=0;entryDy=0;entryPerimeter=0;exitX=0.5;exitY=1;exitDx=0;exitDy=0;" parent="1" source="avBIJHnpUzUA5rvyYwg7-149" target="avBIJHnpUzUA5rvyYwg7-158" edge="1">
          <mxGeometry width="50" height="50" relative="1" as="geometry">
            <mxPoint x="-680" y="670" as="sourcePoint" />
            <mxPoint x="-630" y="620" as="targetPoint" />
          </mxGeometry>
        </mxCell>
        <mxCell id="avBIJHnpUzUA5rvyYwg7-166" value="" style="endArrow=classic;html=1;rounded=0;exitX=0.5;exitY=1;exitDx=0;exitDy=0;entryX=0.5;entryY=0;entryDx=0;entryDy=0;" parent="1" source="avBIJHnpUzUA5rvyYwg7-150" target="avBIJHnpUzUA5rvyYwg7-162" edge="1">
          <mxGeometry width="50" height="50" relative="1" as="geometry">
            <mxPoint x="-507.78999999999996" y="676" as="sourcePoint" />
            <mxPoint x="-508" y="690" as="targetPoint" />
          </mxGeometry>
        </mxCell>
        <mxCell id="avBIJHnpUzUA5rvyYwg7-173" style="edgeStyle=orthogonalEdgeStyle;rounded=0;orthogonalLoop=1;jettySize=auto;html=1;exitX=0.583;exitY=1.006;exitDx=0;exitDy=0;exitPerimeter=0;" parent="1" source="avBIJHnpUzUA5rvyYwg7-169" target="avBIJHnpUzUA5rvyYwg7-156" edge="1">
          <mxGeometry relative="1" as="geometry" />
        </mxCell>
        <mxCell id="avBIJHnpUzUA5rvyYwg7-169" value="Вывод arr[i] и arr[j]" style="shape=parallelogram;perimeter=parallelogramPerimeter;whiteSpace=wrap;html=1;fixedSize=1;" parent="1" vertex="1">
          <mxGeometry x="-730" y="820" width="120" height="60" as="geometry" />
        </mxCell>
        <mxCell id="avBIJHnpUzUA5rvyYwg7-174" style="edgeStyle=orthogonalEdgeStyle;rounded=0;orthogonalLoop=1;jettySize=auto;html=1;exitX=1;exitY=0.5;exitDx=0;exitDy=0;" parent="1" source="avBIJHnpUzUA5rvyYwg7-146" edge="1">
          <mxGeometry relative="1" as="geometry">
            <mxPoint x="-660" y="930" as="targetPoint" />
            <Array as="points">
              <mxPoint x="-230" y="510" />
              <mxPoint x="-230" y="930" />
            </Array>
            <mxPoint x="-597" y="510" as="sourcePoint" />
          </mxGeometry>
        </mxCell>
        <mxCell id="KjvZHoI6fvBAgsaqgRQL-16" style="edgeStyle=orthogonalEdgeStyle;rounded=0;orthogonalLoop=1;jettySize=auto;html=1;exitX=0.5;exitY=1;exitDx=0;exitDy=0;entryX=0.5;entryY=0;entryDx=0;entryDy=0;" edge="1" parent="1" source="KjvZHoI6fvBAgsaqgRQL-1" target="KjvZHoI6fvBAgsaqgRQL-4">
          <mxGeometry relative="1" as="geometry" />
        </mxCell>
        <mxCell id="KjvZHoI6fvBAgsaqgRQL-1" value="начало" style="ellipse;whiteSpace=wrap;html=1;" vertex="1" parent="1">
          <mxGeometry x="539.97" y="290" width="105" height="70" as="geometry" />
        </mxCell>
        <mxCell id="KjvZHoI6fvBAgsaqgRQL-17" style="edgeStyle=orthogonalEdgeStyle;rounded=0;orthogonalLoop=1;jettySize=auto;html=1;exitX=0.5;exitY=1;exitDx=0;exitDy=0;entryX=0.5;entryY=0;entryDx=0;entryDy=0;" edge="1" parent="1" source="KjvZHoI6fvBAgsaqgRQL-4" target="KjvZHoI6fvBAgsaqgRQL-12">
          <mxGeometry relative="1" as="geometry" />
        </mxCell>
        <mxCell id="KjvZHoI6fvBAgsaqgRQL-4" value="Ввод a,b,n" style="shape=parallelogram;perimeter=parallelogramPerimeter;whiteSpace=wrap;html=1;fixedSize=1;" vertex="1" parent="1">
          <mxGeometry x="532.47" y="380" width="120" height="60" as="geometry" />
        </mxCell>
        <mxCell id="KjvZHoI6fvBAgsaqgRQL-50" style="edgeStyle=orthogonalEdgeStyle;rounded=0;orthogonalLoop=1;jettySize=auto;html=1;exitX=1;exitY=0.5;exitDx=0;exitDy=0;entryX=0.5;entryY=0;entryDx=0;entryDy=0;" edge="1" parent="1" source="KjvZHoI6fvBAgsaqgRQL-12" target="KjvZHoI6fvBAgsaqgRQL-24">
          <mxGeometry relative="1" as="geometry" />
        </mxCell>
        <mxCell id="KjvZHoI6fvBAgsaqgRQL-12" value="n % 2 == 0" style="rhombus;whiteSpace=wrap;html=1;" vertex="1" parent="1">
          <mxGeometry x="535.97" y="519" width="115" height="60" as="geometry" />
        </mxCell>
        <mxCell id="KjvZHoI6fvBAgsaqgRQL-14" value="Да" style="text;html=1;align=center;verticalAlign=middle;resizable=0;points=[];autosize=1;strokeColor=none;fillColor=none;" vertex="1" parent="1">
          <mxGeometry x="650.97" y="509" width="40" height="30" as="geometry" />
        </mxCell>
        <mxCell id="KjvZHoI6fvBAgsaqgRQL-15" value="Нет" style="text;html=1;align=center;verticalAlign=middle;resizable=0;points=[];autosize=1;strokeColor=none;fillColor=none;" vertex="1" parent="1">
          <mxGeometry x="605.97" y="570" width="40" height="30" as="geometry" />
        </mxCell>
        <mxCell id="KjvZHoI6fvBAgsaqgRQL-22" style="edgeStyle=orthogonalEdgeStyle;rounded=0;orthogonalLoop=1;jettySize=auto;html=1;entryX=0.5;entryY=0;entryDx=0;entryDy=0;exitX=0.5;exitY=1;exitDx=0;exitDy=0;" edge="1" parent="1" source="KjvZHoI6fvBAgsaqgRQL-21" target="KjvZHoI6fvBAgsaqgRQL-23">
          <mxGeometry relative="1" as="geometry">
            <mxPoint x="840.97" y="508" as="targetPoint" />
            <Array as="points">
              <mxPoint x="599.97" y="690" />
              <mxPoint x="514.97" y="690" />
              <mxPoint x="514.97" y="445" />
              <mxPoint x="590.97" y="445" />
            </Array>
          </mxGeometry>
        </mxCell>
        <mxCell id="KjvZHoI6fvBAgsaqgRQL-21" value="&lt;div&gt;Вывод Ошибка&lt;br&gt;&lt;/div&gt;" style="shape=parallelogram;perimeter=parallelogramPerimeter;whiteSpace=wrap;html=1;fixedSize=1;" vertex="1" parent="1">
          <mxGeometry x="539.97" y="610" width="120" height="60" as="geometry" />
        </mxCell>
        <mxCell id="KjvZHoI6fvBAgsaqgRQL-23" value="Ввод,n" style="shape=parallelogram;perimeter=parallelogramPerimeter;whiteSpace=wrap;html=1;fixedSize=1;" vertex="1" parent="1">
          <mxGeometry x="530.97" y="449" width="120" height="60" as="geometry" />
        </mxCell>
        <mxCell id="KjvZHoI6fvBAgsaqgRQL-24" value="&lt;div&gt; h = (b - a) / n&lt;br/&gt;    &lt;span class=&quot;hljs-built_in&quot;&gt;&lt;br&gt;&lt;/span&gt;&lt;/div&gt;&lt;div&gt;&lt;span class=&quot;hljs-built_in&quot;&gt;sum&lt;/span&gt; = f(a) + f(b)&lt;/div&gt;" style="rounded=0;whiteSpace=wrap;html=1;" vertex="1" parent="1">
          <mxGeometry x="667.47" y="610" width="120" height="60" as="geometry" />
        </mxCell>
        <mxCell id="KjvZHoI6fvBAgsaqgRQL-32" style="edgeStyle=orthogonalEdgeStyle;rounded=0;orthogonalLoop=1;jettySize=auto;html=1;exitX=0.5;exitY=1;exitDx=0;exitDy=0;exitPerimeter=0;entryX=0.5;entryY=0;entryDx=0;entryDy=0;" edge="1" parent="1" source="KjvZHoI6fvBAgsaqgRQL-28" target="KjvZHoI6fvBAgsaqgRQL-31">
          <mxGeometry relative="1" as="geometry" />
        </mxCell>
        <mxCell id="KjvZHoI6fvBAgsaqgRQL-28" value="Первый цикл (для i от 1 до n / 2 - 1):" style="strokeWidth=2;html=1;shape=mxgraph.flowchart.loop_limit;whiteSpace=wrap;" vertex="1" parent="1">
          <mxGeometry x="676.47" y="690" width="100" height="60" as="geometry" />
        </mxCell>
        <mxCell id="KjvZHoI6fvBAgsaqgRQL-29" style="edgeStyle=orthogonalEdgeStyle;rounded=0;orthogonalLoop=1;jettySize=auto;html=1;exitX=0.5;exitY=1;exitDx=0;exitDy=0;entryX=0.5;entryY=0;entryDx=0;entryDy=0;entryPerimeter=0;" edge="1" parent="1" source="KjvZHoI6fvBAgsaqgRQL-24" target="KjvZHoI6fvBAgsaqgRQL-28">
          <mxGeometry relative="1" as="geometry" />
        </mxCell>
        <mxCell id="KjvZHoI6fvBAgsaqgRQL-30" value="Конец первого цикла (для i от 1 до n / 2 - 1):" style="strokeWidth=2;html=1;shape=mxgraph.flowchart.loop_limit;whiteSpace=wrap;flipV=1;" vertex="1" parent="1">
          <mxGeometry x="677.47" y="840" width="100" height="60" as="geometry" />
        </mxCell>
        <mxCell id="KjvZHoI6fvBAgsaqgRQL-31" value="&lt;div&gt;x = a + 2 * i * h&lt;/div&gt;&lt;div&gt;&amp;nbsp;&lt;span class=&quot;hljs-built_in&quot;&gt;sum&lt;/span&gt; = &lt;span class=&quot;hljs-built_in&quot;&gt;sum&lt;/span&gt; + 4 * f(x)&lt;/div&gt;" style="rounded=0;whiteSpace=wrap;html=1;" vertex="1" parent="1">
          <mxGeometry x="664.97" y="770" width="120" height="60" as="geometry" />
        </mxCell>
        <mxCell id="KjvZHoI6fvBAgsaqgRQL-33" style="edgeStyle=orthogonalEdgeStyle;rounded=0;orthogonalLoop=1;jettySize=auto;html=1;exitX=0.5;exitY=1;exitDx=0;exitDy=0;entryX=0.5;entryY=1;entryDx=0;entryDy=0;entryPerimeter=0;" edge="1" parent="1" source="KjvZHoI6fvBAgsaqgRQL-31" target="KjvZHoI6fvBAgsaqgRQL-30">
          <mxGeometry relative="1" as="geometry" />
        </mxCell>
        <mxCell id="KjvZHoI6fvBAgsaqgRQL-37" style="edgeStyle=orthogonalEdgeStyle;rounded=0;orthogonalLoop=1;jettySize=auto;html=1;exitX=0.5;exitY=1;exitDx=0;exitDy=0;exitPerimeter=0;entryX=0.5;entryY=0;entryDx=0;entryDy=0;" edge="1" parent="1" source="KjvZHoI6fvBAgsaqgRQL-34" target="KjvZHoI6fvBAgsaqgRQL-36">
          <mxGeometry relative="1" as="geometry" />
        </mxCell>
        <mxCell id="KjvZHoI6fvBAgsaqgRQL-34" value="Второй цикл (для i от 1 до n / 2 ):" style="strokeWidth=2;html=1;shape=mxgraph.flowchart.loop_limit;whiteSpace=wrap;" vertex="1" parent="1">
          <mxGeometry x="679.97" y="920" width="100" height="60" as="geometry" />
        </mxCell>
        <mxCell id="KjvZHoI6fvBAgsaqgRQL-35" style="edgeStyle=orthogonalEdgeStyle;rounded=0;orthogonalLoop=1;jettySize=auto;html=1;exitX=0.5;exitY=0;exitDx=0;exitDy=0;exitPerimeter=0;entryX=0.5;entryY=0;entryDx=0;entryDy=0;entryPerimeter=0;" edge="1" parent="1" source="KjvZHoI6fvBAgsaqgRQL-30" target="KjvZHoI6fvBAgsaqgRQL-34">
          <mxGeometry relative="1" as="geometry" />
        </mxCell>
        <mxCell id="KjvZHoI6fvBAgsaqgRQL-36" value=" x = a + (2 * i - 1) * h&lt;br/&gt;    &lt;span class=&quot;hljs-built_in&quot;&gt;sum&lt;/span&gt; = &lt;span class=&quot;hljs-built_in&quot;&gt;sum&lt;/span&gt; + 2 * f(x)" style="rounded=0;whiteSpace=wrap;html=1;" vertex="1" parent="1">
          <mxGeometry x="671.47" y="1000" width="120" height="60" as="geometry" />
        </mxCell>
        <mxCell id="KjvZHoI6fvBAgsaqgRQL-41" style="edgeStyle=orthogonalEdgeStyle;rounded=0;orthogonalLoop=1;jettySize=auto;html=1;exitX=0.5;exitY=0;exitDx=0;exitDy=0;exitPerimeter=0;entryX=0.5;entryY=0;entryDx=0;entryDy=0;" edge="1" parent="1" source="KjvZHoI6fvBAgsaqgRQL-38" target="KjvZHoI6fvBAgsaqgRQL-40">
          <mxGeometry relative="1" as="geometry" />
        </mxCell>
        <mxCell id="KjvZHoI6fvBAgsaqgRQL-38" value="Конец второго цикла (для i от 1 до n / 2 ):" style="strokeWidth=2;html=1;shape=mxgraph.flowchart.loop_limit;whiteSpace=wrap;flipV=1;" vertex="1" parent="1">
          <mxGeometry x="811.5" y="260" width="100" height="60" as="geometry" />
        </mxCell>
        <mxCell id="KjvZHoI6fvBAgsaqgRQL-43" style="edgeStyle=orthogonalEdgeStyle;rounded=0;orthogonalLoop=1;jettySize=auto;html=1;exitX=0.5;exitY=1;exitDx=0;exitDy=0;entryX=0.5;entryY=0;entryDx=0;entryDy=0;" edge="1" parent="1" source="KjvZHoI6fvBAgsaqgRQL-40" target="KjvZHoI6fvBAgsaqgRQL-42">
          <mxGeometry relative="1" as="geometry" />
        </mxCell>
        <mxCell id="KjvZHoI6fvBAgsaqgRQL-40" value="Площадь = &lt;span class=&quot;hljs-built_in&quot;&gt;sum&lt;/span&gt; * h / 3" style="rounded=0;whiteSpace=wrap;html=1;" vertex="1" parent="1">
          <mxGeometry x="801.5" y="340" width="120" height="60" as="geometry" />
        </mxCell>
        <mxCell id="KjvZHoI6fvBAgsaqgRQL-42" value="&lt;font style=&quot;line-height: 90%; font-size: 8px;&quot;&gt; h = (b - a) / n&lt;br&gt;    maxDer = Max(6 * b + 4, 6 * a + 4)&lt;br&gt;    Погрешность = (b - a) * h^3 * maxDer / 180&lt;/font&gt;" style="rounded=0;whiteSpace=wrap;html=1;" vertex="1" parent="1">
          <mxGeometry x="801.5" y="419" width="120" height="60" as="geometry" />
        </mxCell>
        <mxCell id="KjvZHoI6fvBAgsaqgRQL-47" style="edgeStyle=orthogonalEdgeStyle;rounded=0;orthogonalLoop=1;jettySize=auto;html=1;exitX=0.5;exitY=1;exitDx=0;exitDy=0;entryX=0.5;entryY=0;entryDx=0;entryDy=0;" edge="1" parent="1" source="KjvZHoI6fvBAgsaqgRQL-44">
          <mxGeometry relative="1" as="geometry">
            <mxPoint x="861.5" y="580" as="targetPoint" />
          </mxGeometry>
        </mxCell>
        <mxCell id="KjvZHoI6fvBAgsaqgRQL-44" value="&lt;div&gt;Вывод&amp;nbsp;&lt;/div&gt;&lt;div&gt;площадь&lt;/div&gt;&lt;div&gt;погрешность&lt;br&gt;&lt;/div&gt;" style="shape=parallelogram;perimeter=parallelogramPerimeter;whiteSpace=wrap;html=1;fixedSize=1;" vertex="1" parent="1">
          <mxGeometry x="800" y="500" width="120" height="60" as="geometry" />
        </mxCell>
        <mxCell id="KjvZHoI6fvBAgsaqgRQL-45" style="edgeStyle=orthogonalEdgeStyle;rounded=0;orthogonalLoop=1;jettySize=auto;html=1;exitX=0.5;exitY=1;exitDx=0;exitDy=0;entryX=0.551;entryY=0.027;entryDx=0;entryDy=0;entryPerimeter=0;" edge="1" parent="1" source="KjvZHoI6fvBAgsaqgRQL-42" target="KjvZHoI6fvBAgsaqgRQL-44">
          <mxGeometry relative="1" as="geometry" />
        </mxCell>
        <mxCell id="KjvZHoI6fvBAgsaqgRQL-48" style="edgeStyle=orthogonalEdgeStyle;rounded=0;orthogonalLoop=1;jettySize=auto;html=1;exitX=0.5;exitY=1;exitDx=0;exitDy=0;entryX=0.468;entryY=-0.022;entryDx=0;entryDy=0;entryPerimeter=0;" edge="1" parent="1" source="KjvZHoI6fvBAgsaqgRQL-12" target="KjvZHoI6fvBAgsaqgRQL-21">
          <mxGeometry relative="1" as="geometry" />
        </mxCell>
        <mxCell id="KjvZHoI6fvBAgsaqgRQL-51" value="Конец" style="ellipse;whiteSpace=wrap;html=1;" vertex="1" parent="1">
          <mxGeometry x="917.5" y="1160" width="105" height="70" as="geometry" />
        </mxCell>
        <mxCell id="KjvZHoI6fvBAgsaqgRQL-56" value="Третий цикл" style="strokeWidth=2;html=1;shape=mxgraph.flowchart.loop_limit;whiteSpace=wrap;" vertex="1" parent="1">
          <mxGeometry x="811.5" y="580" width="100" height="60" as="geometry" />
        </mxCell>
        <mxCell id="KjvZHoI6fvBAgsaqgRQL-60" style="edgeStyle=orthogonalEdgeStyle;rounded=0;orthogonalLoop=1;jettySize=auto;html=1;exitX=0.5;exitY=1;exitDx=0;exitDy=0;entryX=0.5;entryY=0;entryDx=0;entryDy=0;" edge="1" parent="1" source="KjvZHoI6fvBAgsaqgRQL-57">
          <mxGeometry relative="1" as="geometry">
            <mxPoint x="861.5" y="750" as="targetPoint" />
          </mxGeometry>
        </mxCell>
        <mxCell id="KjvZHoI6fvBAgsaqgRQL-57" value="&lt;font style=&quot;font-size: 8px;&quot;&gt;Вывод текста:&lt;br&gt;&amp;nbsp; &lt;span class=&quot;hljs-string&quot;&gt;&quot;1. Вычислить площадь&quot;&lt;/span&gt; &lt;br&gt;        | &lt;span class=&quot;hljs-string&quot;&gt;&quot;2. Выход&quot;&lt;/span&gt;&lt;/font&gt;  " style="shape=parallelogram;perimeter=parallelogramPerimeter;whiteSpace=wrap;html=1;fixedSize=1;" vertex="1" parent="1">
          <mxGeometry x="800" y="660" width="120" height="60" as="geometry" />
        </mxCell>
        <mxCell id="KjvZHoI6fvBAgsaqgRQL-58" style="edgeStyle=orthogonalEdgeStyle;rounded=0;orthogonalLoop=1;jettySize=auto;html=1;exitX=0.5;exitY=1;exitDx=0;exitDy=0;exitPerimeter=0;entryX=0.533;entryY=0.009;entryDx=0;entryDy=0;entryPerimeter=0;" edge="1" parent="1" source="KjvZHoI6fvBAgsaqgRQL-56" target="KjvZHoI6fvBAgsaqgRQL-57">
          <mxGeometry relative="1" as="geometry" />
        </mxCell>
        <mxCell id="KjvZHoI6fvBAgsaqgRQL-63" style="edgeStyle=orthogonalEdgeStyle;rounded=0;orthogonalLoop=1;jettySize=auto;html=1;exitX=0.5;exitY=1;exitDx=0;exitDy=0;entryX=0.5;entryY=0;entryDx=0;entryDy=0;" edge="1" parent="1" source="KjvZHoI6fvBAgsaqgRQL-61">
          <mxGeometry relative="1" as="geometry">
            <mxPoint x="861.5" y="840" as="targetPoint" />
          </mxGeometry>
        </mxCell>
        <mxCell id="KjvZHoI6fvBAgsaqgRQL-61" value="&lt;font style=&quot;font-size: 10px;&quot;&gt;Чтение ввода переменной choice&lt;/font&gt;" style="shape=parallelogram;perimeter=parallelogramPerimeter;whiteSpace=wrap;html=1;fixedSize=1;" vertex="1" parent="1">
          <mxGeometry x="801.5" y="750" width="120" height="60" as="geometry" />
        </mxCell>
        <mxCell id="KjvZHoI6fvBAgsaqgRQL-65" style="edgeStyle=orthogonalEdgeStyle;rounded=0;orthogonalLoop=1;jettySize=auto;html=1;exitX=0.5;exitY=1;exitDx=0;exitDy=0;entryX=0.522;entryY=0.011;entryDx=0;entryDy=0;entryPerimeter=0;" edge="1" parent="1" source="KjvZHoI6fvBAgsaqgRQL-64" target="KjvZHoI6fvBAgsaqgRQL-23">
          <mxGeometry relative="1" as="geometry">
            <mxPoint x="530.97" y="464" as="targetPoint" />
            <mxPoint x="917.47" y="970" as="sourcePoint" />
            <Array as="points">
              <mxPoint x="863" y="1195" />
              <mxPoint x="515" y="1195" />
              <mxPoint x="515" y="445" />
              <mxPoint x="595" y="445" />
              <mxPoint x="595" y="450" />
            </Array>
          </mxGeometry>
        </mxCell>
        <mxCell id="KjvZHoI6fvBAgsaqgRQL-64" value="choice == &lt;span class=&quot;hljs-number&quot;&gt;1&lt;/span&gt;" style="rhombus;whiteSpace=wrap;html=1;" vertex="1" parent="1">
          <mxGeometry x="805" y="840" width="115" height="60" as="geometry" />
        </mxCell>
        <mxCell id="KjvZHoI6fvBAgsaqgRQL-67" value="Да" style="text;html=1;align=center;verticalAlign=middle;resizable=0;points=[];autosize=1;strokeColor=none;fillColor=none;" vertex="1" parent="1">
          <mxGeometry x="871.5" y="890" width="40" height="30" as="geometry" />
        </mxCell>
        <mxCell id="KjvZHoI6fvBAgsaqgRQL-68" value="Нет" style="text;html=1;align=center;verticalAlign=middle;resizable=0;points=[];autosize=1;strokeColor=none;fillColor=none;" vertex="1" parent="1">
          <mxGeometry x="911.5" y="830" width="40" height="30" as="geometry" />
        </mxCell>
        <mxCell id="KjvZHoI6fvBAgsaqgRQL-75" style="edgeStyle=orthogonalEdgeStyle;rounded=0;orthogonalLoop=1;jettySize=auto;html=1;exitX=0.5;exitY=1;exitDx=0;exitDy=0;" edge="1" parent="1" source="KjvZHoI6fvBAgsaqgRQL-71">
          <mxGeometry relative="1" as="geometry">
            <mxPoint x="969.0476190476188" y="1010" as="targetPoint" />
          </mxGeometry>
        </mxCell>
        <mxCell id="KjvZHoI6fvBAgsaqgRQL-89" style="edgeStyle=orthogonalEdgeStyle;rounded=0;orthogonalLoop=1;jettySize=auto;html=1;exitX=1;exitY=0.5;exitDx=0;exitDy=0;entryX=0.5;entryY=0;entryDx=0;entryDy=0;" edge="1" parent="1" source="KjvZHoI6fvBAgsaqgRQL-71" target="KjvZHoI6fvBAgsaqgRQL-88">
          <mxGeometry relative="1" as="geometry" />
        </mxCell>
        <mxCell id="KjvZHoI6fvBAgsaqgRQL-71" value="choice ==&amp;nbsp;2" style="rhombus;whiteSpace=wrap;html=1;" vertex="1" parent="1">
          <mxGeometry x="911.5" y="900" width="115" height="60" as="geometry" />
        </mxCell>
        <mxCell id="KjvZHoI6fvBAgsaqgRQL-72" style="edgeStyle=orthogonalEdgeStyle;rounded=0;orthogonalLoop=1;jettySize=auto;html=1;exitX=1;exitY=0.5;exitDx=0;exitDy=0;entryX=0.505;entryY=0.056;entryDx=0;entryDy=0;entryPerimeter=0;" edge="1" parent="1" source="KjvZHoI6fvBAgsaqgRQL-64" target="KjvZHoI6fvBAgsaqgRQL-71">
          <mxGeometry relative="1" as="geometry" />
        </mxCell>
        <mxCell id="KjvZHoI6fvBAgsaqgRQL-73" value="Да" style="text;html=1;align=center;verticalAlign=middle;resizable=0;points=[];autosize=1;strokeColor=none;fillColor=none;" vertex="1" parent="1">
          <mxGeometry x="975" y="950" width="40" height="30" as="geometry" />
        </mxCell>
        <mxCell id="KjvZHoI6fvBAgsaqgRQL-74" value="Нет" style="text;html=1;align=center;verticalAlign=middle;resizable=0;points=[];autosize=1;strokeColor=none;fillColor=none;" vertex="1" parent="1">
          <mxGeometry x="1015" y="890" width="40" height="30" as="geometry" />
        </mxCell>
        <mxCell id="KjvZHoI6fvBAgsaqgRQL-81" style="edgeStyle=orthogonalEdgeStyle;rounded=0;orthogonalLoop=1;jettySize=auto;html=1;exitX=0.5;exitY=0;exitDx=0;exitDy=0;exitPerimeter=0;entryX=0.5;entryY=0;entryDx=0;entryDy=0;" edge="1" parent="1" source="KjvZHoI6fvBAgsaqgRQL-76" target="KjvZHoI6fvBAgsaqgRQL-78">
          <mxGeometry relative="1" as="geometry" />
        </mxCell>
        <mxCell id="KjvZHoI6fvBAgsaqgRQL-76" value="конец третьего цикла" style="strokeWidth=2;html=1;shape=mxgraph.flowchart.loop_limit;whiteSpace=wrap;flipV=1;" vertex="1" parent="1">
          <mxGeometry x="921.5" y="1010" width="98.5" height="60" as="geometry" />
        </mxCell>
        <mxCell id="KjvZHoI6fvBAgsaqgRQL-80" style="edgeStyle=orthogonalEdgeStyle;rounded=0;orthogonalLoop=1;jettySize=auto;html=1;exitX=0.5;exitY=1;exitDx=0;exitDy=0;entryX=0.5;entryY=0;entryDx=0;entryDy=0;" edge="1" parent="1" source="KjvZHoI6fvBAgsaqgRQL-78" target="KjvZHoI6fvBAgsaqgRQL-51">
          <mxGeometry relative="1" as="geometry" />
        </mxCell>
        <mxCell id="KjvZHoI6fvBAgsaqgRQL-78" value="Вывод выход из программы" style="shape=parallelogram;perimeter=parallelogramPerimeter;whiteSpace=wrap;html=1;fixedSize=1;" vertex="1" parent="1">
          <mxGeometry x="911.5" y="1080" width="120" height="60" as="geometry" />
        </mxCell>
        <mxCell id="KjvZHoI6fvBAgsaqgRQL-90" style="edgeStyle=orthogonalEdgeStyle;rounded=0;orthogonalLoop=1;jettySize=auto;html=1;exitX=0.5;exitY=1;exitDx=0;exitDy=0;" edge="1" parent="1" source="KjvZHoI6fvBAgsaqgRQL-88">
          <mxGeometry relative="1" as="geometry">
            <mxPoint x="865" y="569.9999999999998" as="targetPoint" />
            <Array as="points">
              <mxPoint x="1105" y="1020" />
              <mxPoint x="1205" y="1020" />
              <mxPoint x="1205" y="570" />
            </Array>
          </mxGeometry>
        </mxCell>
        <mxCell id="KjvZHoI6fvBAgsaqgRQL-88" value="&lt;div&gt;&lt;font style=&quot;font-size: 10px;&quot;&gt;Вывод попробуйте снова&lt;/font&gt;&lt;/div&gt;&lt;div&gt;&lt;font style=&quot;font-size: 10px;&quot;&gt;&lt;br&gt;&lt;/font&gt;&lt;/div&gt;" style="shape=parallelogram;perimeter=parallelogramPerimeter;whiteSpace=wrap;html=1;fixedSize=1;" vertex="1" parent="1">
          <mxGeometry x="1045" y="950" width="120" height="60" as="geometry" />
        </mxCell>
        <mxCell id="KjvZHoI6fvBAgsaqgRQL-92" value="1" style="strokeWidth=2;html=1;shape=mxgraph.flowchart.start_2;whiteSpace=wrap;" vertex="1" parent="1">
          <mxGeometry x="714.97" y="1110" width="40" height="40" as="geometry" />
        </mxCell>
        <mxCell id="KjvZHoI6fvBAgsaqgRQL-93" style="edgeStyle=orthogonalEdgeStyle;rounded=0;orthogonalLoop=1;jettySize=auto;html=1;exitX=0.5;exitY=1;exitDx=0;exitDy=0;entryX=0.417;entryY=-0.125;entryDx=0;entryDy=0;entryPerimeter=0;" edge="1" parent="1" source="KjvZHoI6fvBAgsaqgRQL-36" target="KjvZHoI6fvBAgsaqgRQL-92">
          <mxGeometry relative="1" as="geometry" />
        </mxCell>
        <mxCell id="KjvZHoI6fvBAgsaqgRQL-94" value="1" style="strokeWidth=2;html=1;shape=mxgraph.flowchart.start_2;whiteSpace=wrap;" vertex="1" parent="1">
          <mxGeometry x="842.5" y="190" width="40" height="40" as="geometry" />
        </mxCell>
        <mxCell id="KjvZHoI6fvBAgsaqgRQL-96" style="edgeStyle=orthogonalEdgeStyle;rounded=0;orthogonalLoop=1;jettySize=auto;html=1;exitX=0.5;exitY=1;exitDx=0;exitDy=0;exitPerimeter=0;entryX=0.5;entryY=1;entryDx=0;entryDy=0;entryPerimeter=0;" edge="1" parent="1" source="KjvZHoI6fvBAgsaqgRQL-94" target="KjvZHoI6fvBAgsaqgRQL-38">
          <mxGeometry relative="1" as="geometry" />
        </mxCell>
      </root>
    </mxGraphModel>
  </diagram>
</mxfile>
